<svg xmlns="http://www.w3.org/2000/svg" xmlns:xlink="http://www.w3.org/1999/xlink" width="407" height="407.426" viewBox="0 0 407 407.426">
  <defs>
    <linearGradient id="linear-gradient" x1="0.5" x2="0.5" y2="1" gradientUnits="objectBoundingBox">
      <stop offset="0" stop-color="#8c10af"/>
      <stop offset="0.473" stop-color="#e24a94"/>
      <stop offset="1" stop-color="#f70"/>
    </linearGradient>
  </defs>
  <g id="heroImg" transform="translate(-5201 964)">
    <path id="Path_46" data-name="Path 46" d="M1114.5,683.426c112.39,0,203.5-91.205,203.5-203.713S1226.89,276,1114.5,276,911,367.206,911,479.713,1002.11,683.426,1114.5,683.426Z" transform="translate(4290 -1240)" fill="url(#linear-gradient)"/>
    <path id="Path_47" data-name="Path 47" d="M1037.83,526.456h-37.01l-5.239-155.409h47.5Zm-18.5,24.336q11.25,0,18.04,6.623,6.945,6.623,6.94,16.942a22.2,22.2,0,0,1-6.94,16.789q-6.78,6.622-18.04,6.623-11.1,0-18.04-6.623a24.155,24.155,0,0,1,0-33.577Q1008.22,550.792,1019.33,550.792Zm155.9,44.512a49.133,49.133,0,0,1-4.47-14.94q-16.2,18.021-42.1,18.021-24.525,0-40.71-14.171-16.035-14.169-16.04-35.733,0-26.492,19.59-40.662,19.725-14.169,56.9-14.324h20.51v-9.55q0-11.552-6.02-18.482-5.85-6.932-18.66-6.931-11.25,0-17.73,5.39-6.315,5.393-6.32,14.787h-44.57a44.635,44.635,0,0,1,8.95-26.8q8.94-12.321,25.29-19.253,16.335-7.084,36.7-7.085,30.84,0,48.88,15.557,18.2,15.4,18.2,43.434V556.8q.15,23.719,6.63,35.887V595.3Zm-36.86-30.958a38.985,38.985,0,0,0,18.2-4.313,29.368,29.368,0,0,0,12.34-11.86V519.525h-16.66q-33.465,0-35.62,23.1l-.15,2.618a17.8,17.8,0,0,0,5.86,13.708Q1128.19,564.346,1138.37,564.346Z" transform="translate(4297.498 -1245.047)" fill="#fff"/>
  </g>
</svg>
