<svg width="49" height="43" viewBox="0 0 49 43" fill="none" xmlns="http://www.w3.org/2000/svg">
    <path
        d="M38.8953 42.8C34.762 42.8 31.8953 41.6 30.2953 39.2C28.6953 36.8 27.8953 33.9333 27.8953 30.6C27.8953 27.1333 28.4953 23.4667 29.6953 19.6C31.0286 15.6 32.6286 12 34.4953 8.79999C36.362 5.59999 38.2286 3.26666 40.0953 1.79999C41.162 0.999997 42.0286 0.599998 42.6953 0.599998C43.362 0.599998 43.6953 0.999997 43.6953 1.79999C43.6953 2.2 43.4953 2.73333 43.0953 3.4C40.0286 7.39999 37.962 11 36.8953 14.2C35.8286 17.4 35.2953 20.0667 35.2953 22.2C35.2953 22.6 35.2953 23 35.2953 23.4C35.4286 23.6667 35.4953 23.9333 35.4953 24.2C36.562 23.8 37.6953 23.6 38.8953 23.6C41.562 23.6 43.8286 24.5333 45.6953 26.4C47.562 28.2667 48.4953 30.5333 48.4953 33.2C48.4953 35.7333 47.562 38 45.6953 40C43.8286 41.8667 41.562 42.8 38.8953 42.8ZM11.4953 42.8C7.36198 42.8 4.49531 41.6 2.89531 39.2C1.29531 36.8 0.495312 33.9333 0.495312 30.6C0.495312 27.1333 1.09531 23.4667 2.29531 19.6C3.62865 15.6 5.22865 12 7.09531 8.79999C8.96198 5.59999 10.8286 3.26666 12.6953 1.79999C13.762 0.999997 14.562 0.599998 15.0953 0.599998C15.762 0.599998 16.0953 0.933331 16.0953 1.6C16.0953 2.13333 15.8953 2.73333 15.4953 3.4C12.562 7.26666 10.562 10.8 9.49531 14C8.42865 17.0667 7.89531 19.6 7.89531 21.6C7.89531 22.1333 7.89531 22.6667 7.89531 23.2C7.89531 23.6 7.96198 23.9333 8.09531 24.2C9.16198 23.8 10.2953 23.6 11.4953 23.6C14.162 23.6 16.4286 24.5333 18.2953 26.4C20.162 28.2667 21.0953 30.5333 21.0953 33.2C21.0953 35.7333 20.162 38 18.2953 40C16.4286 41.8667 14.162 42.8 11.4953 42.8Z"
        fill="#24487E" fill-opacity="0.5" />
</svg>
